<svg xmlns="http://www.w3.org/2000/svg" viewBox="0 0 137.6 126.9" enable-background="new 0 0 137.6 126.9"><style type="text/css">.st0{fill:#FFFFFF;}</style><path id="XMLID_2631_" d="M124.4 39.8c.1-1.6.3-1.2 0-4.4-.1-.7 0-1 .1-1.6 0-.2.3-.5.4-.7.3-.3.3-.5.2-.6 0 0 0-.1 0-.1-.1-.6-.3-1.1-.4-1.6.1-.1.2-.2.2-.2.1 0 .2 0 .4 0 .1.2.1.5.1.8 0 .3.1.6.2.9 0 .1.1.2.2.3 0 .1.1.1.3.2 1.2.4 1.8 1.3 2.1 2.3 1 3 1.8 6.1 2.7 9.3-.3 0-.5 0-.6 0 0 .2.1.3.1.6-.4-.1-.6-.2-1.2-.4.3.3.3.5.5.8-.1.1-.2.2-.3.4-.8-.3-.8-1-1.1-1.7-.2-.6-.4-1.3-.8-1.8.2 1.1.5 2.2.7 3.3 0 0-.1 0-.1 0-.1-.2-.3-.3-.5-.6 0 .4.1.6.1.8 0 0-.1 0-.1.1-.2-.2-.4-.5-.6-.8 0 .2 0 .3 0 .5-.4.1-.8-.4-1 .3 0 0-.5 0-.6 0 0-.1-1-5.9-1-6.1zm9.1 0s-.3.6-1.9-.2-3.7-5.6-3.7-5.6l-.5-.2 1 2.1s1.3 4.7 2.8 5.1c1.5.4 2.1-.2 2.1-.2l.2-1zm-9.8 1.7c-.5 1.4-1.7 2.9-1.7 2.9s1.4-.9 1.7-1.5c.4-.6.8-1.4.8-1.4s.1.3-.3 1.2c-.2.9-1.2 1.3-1.2 1.3l.2.3 1.4-.7-.7 1.4.5.4s.5-.8 1.3-2.1c.7-1.2-1-9.1-1-9.1s.2 3.6-1 7.3zm6.2 2s-1-3.1-1.2-3.8c-.1-.7-.4-2.3-.7-3.1-.3-.8-.5-1.1-.5-1.1s1 3.4.9 4c-.1.7.8 3.4.9 3.8.2.3.6.2.6.2zm-4.7-12l-1.3-6.3h-.2l1.3 6.3h.2zm-.8.8c.4.5 1.1.5 1.5.1.5-.4.5-1.1.1-1.5s-1.1-.5-1.5-.1c-.4.3-.4 1-.1 1.5zM6.9 46.3c6.9-10.4 17-17.3 29.5-19.7 11.8-2.3 24.1-1.2 34.8 4.5 20.9 11.2 30.7 36.7 22.4 59-.5 1.4-3.4 7.2-3.4 7.3.1.1.7.5.8.5.6 0 3.4-4.6 4.1-5.8 3.4-6.3 5.4-13.2 5.9-20.4.9-13.1-3.4-26.3-11.9-36.3-15-17.7-40.8-23.1-62.2-14.2-3.4 1.4-11.8 5.1-18.5 14.1C-.3 46.9-.2 59.7.1 63.8c.6-4 3.2-12 6.8-17.5zM132 24.1l5.6-1.2S102.9-.1 98.5 0 65 7.3 65 7.3l16.6 10.8-2.7 4.1s14.4-1 31.1 12c0 0 3.3-6.6 3.2-9.3 0-1.4-.4-4.7-3.8-7.2-3.4-2.4-11.2-6.5-20.4-7.2 0 0 11.3-.6 22.1 6.8 5.3 3.6 3.1 10.4 3.1 10.4l16.7-3.4m-49.4.9l1.1-2.1-3.4-.3 2.3 2.4zm25.4 10c-12.2-9.4-21.6-9.7-21.6-9.7l.8.7c-.5-.2-.8-.4-.8-.4 12.1 9.7 19.6 24.4 20.2 40.3 1.2 29.7-21.4 54.8-50.4 56-9.3.4-18.6-.9-26.8-5.4l-.6 1.1c9.9 6.9 21.5 9.4 33.4 8.9 7.6-.3 15-2.2 21.8-5.6 6.6-3.3 12.5-7.8 17.5-13.5s8.6-12.2 11.1-19.4c2.7-7.5 3.7-15.3 3.5-23.4-.2-14.3-8.1-29.6-8.1-29.6zM44.2 74.5l-7.1-11.7c3.5-1.1 5.7-3.7 5.7-7.4 0-6.3-5.2-8.3-10.5-8.3H21.9v27.3h6.5V63.7h2.2l5.9 10.8h7.7zm-8-18.9c0 2.8-2.7 3.3-4.8 3.3h-3.1v-6.4h3.5c2 0 4.4.5 4.4 3.1zm29.5 0c0-6.3-4.7-8.4-10.7-8.4H45v27.3h6.6V64.2h3.3c5.6 0 10.8-2.2 10.8-8.6zm-6.6.1c0 2.6-2.3 3.3-4.7 3.3h-2.8v-6.4h2.9c2.3-.1 4.6.4 4.6 3.1zm26.6-5.8c-2.4-2.2-5.9-3.4-9-3.4-5.1 0-10.6 2.5-10.6 8.6 0 4.9 3.5 6.7 7 7.8 3.6 1.2 5.7 1.8 5.7 3.9 0 2.2-1.8 3-3.8 3-2.2 0-4.6-1.2-5.9-2.9l-4.3 4.4c2.4 2.5 6.3 3.9 10.2 3.9 5.4 0 10.5-2.8 10.5-9.1 0-5.4-4.8-7-8.5-8.2-2.6-.8-4.2-1.4-4.2-3.2 0-2.2 2.1-2.7 3.8-2.7s3.7.9 4.9 2.4l4.2-4.5zm-63.1 38H24v-3.3h1l1.8 3.3h1.7l-2.1-3.4c1.1-.2 1.8-1 1.8-2.1 0-1.6-1.4-2.2-2.8-2.2h-2.7v7.7zm1.4-4.3v-2.2h1.2c.7 0 1.5.2 1.5 1 0 .9-.9 1.1-1.7 1.1h-1zm5.4 4.3h1.4v-7.7h-1.4v7.7zm9.6-6.7c-.6-.8-1.8-1.2-2.8-1.2-2.4 0-4.2 1.6-4.2 4s1.7 4.1 4.1 4.1c1.3 0 2.3-.5 3-1.3L38 86c-.4.5-1 .9-1.9.9-1.6 0-2.6-1.2-2.6-2.8 0-1.6 1.1-2.8 2.7-2.8.6 0 1.3.2 1.7.8l1.1-.9zm.9 6.7h1.4v-3.4h3.6v3.4h1.4v-7.7h-1.4v3.1h-3.6v-3.1h-1.4v7.7zm8 0h1.3v-6.2l2.3 6.2h1l2.3-6.2v6.2h1.4v-7.7h-2.1l-2 5.5-2-5.5H48v7.7zm9.6-3.8c0 2.4 1.7 4.1 4.1 4.1 2.4 0 4.1-1.7 4.1-4.1 0-2.5-1.7-4-4.1-4-2.4 0-4.1 1.5-4.1 4zm1.5 0c0-1.6 1.1-2.8 2.6-2.8 1.6 0 2.6 1.2 2.6 2.8 0 1.6-1.1 2.8-2.6 2.8S59 85.7 59 84.1zm8 3.8h1.4V82l3.6 5.9h1.7v-7.7h-1.4V86l-3.6-5.8H67v7.7zm8.5 0h2.7c2 0 4.2-1.2 4.2-3.8 0-2.9-2.2-3.8-4.2-3.8h-2.7v7.6zm1.3-1.1v-5.3H78c1.4 0 3 .5 3 2.7 0 2.1-1.6 2.6-3 2.6h-1.2zm-54 9.3h.9V94h.7c1.1 0 1.9-.4 1.9-1.5 0-1-.7-1.5-1.9-1.5h-1.6v5.1zm.9-2.8v-1.4h.7c.6 0 1.1.1 1.1.7s-.5.7-1.1.7h-.7zm7.3-2.2h-.9v3.1c0 .6-.3 1.2-1.1 1.2-.9 0-1.1-.6-1.1-1.2v-3.1H27v3.2c0 1.2.9 2 2 2s2-.8 2-2v-3.2zm1.1 5h1.8c.9 0 1.9-.4 1.9-1.5 0-.7-.5-1.1-1.1-1.2.5-.2.9-.5.9-1.1 0-.9-.8-1.3-1.5-1.3h-2v5.1zm.9-4.3h.7c.7 0 1 .2 1 .6 0 .4-.3.7-.9.7H33v-1.3zm0 2.1h.8c.7 0 1.1.2 1.1.7 0 .7-.7.8-1.1.8H33v-1.5zm3.7 2.2h3v-.8h-2.1v-4.2h-.9v5zm3.6 0h.9v-5h-.9v5zm6.3-4.4c-.4-.5-1.2-.8-1.8-.8-1.5 0-2.7 1-2.7 2.6s1.1 2.6 2.7 2.6c.8 0 1.5-.3 1.9-.9l-.7-.5c-.3.3-.7.6-1.2.6-1 0-1.7-.8-1.7-1.8s.7-1.8 1.7-1.8c.4 0 .9.2 1.1.5l.7-.5zm5.5-.2c-.4-.4-1-.5-1.5-.5-.9 0-1.8.5-1.8 1.5 0 .9.7 1.2 1.3 1.4.6.2 1.2.3 1.2.9 0 .5-.5.7-.9.7s-.8-.2-1.1-.6l-.6.6c.4.5 1.1.7 1.7.7 1 0 1.8-.5 1.8-1.6 0-1-.8-1.3-1.5-1.5-.6-.2-1-.3-1-.8s.5-.7.9-.7.7.2.9.4l.6-.5zm5.2.2c-.4-.5-1.2-.8-1.8-.8-1.5 0-2.7 1-2.7 2.6s1.1 2.6 2.7 2.6c.8 0 1.5-.3 1.9-.9l-.7-.5c-.3.3-.7.6-1.2.6-1 0-1.7-.8-1.7-1.8s.7-1.8 1.7-1.8c.4 0 .9.2 1.1.5l.7-.5zm.6 4.4h.9v-2.2h2.3v2.2h.9v-5h-.9v2h-2.3v-2h-.9v5zm5-2.5c0 1.6 1.1 2.6 2.7 2.6s2.7-1.1 2.7-2.6c0-1.6-1.1-2.6-2.7-2.6s-2.7 1-2.7 2.6zm1 0c0-1 .7-1.8 1.7-1.8s1.7.8 1.7 1.8c0 1.1-.7 1.8-1.7 1.8s-1.7-.7-1.7-1.8zm5 0c0 1.6 1.1 2.6 2.7 2.6s2.7-1.1 2.7-2.6c0-1.6-1.1-2.6-2.7-2.6s-2.7 1-2.7 2.6zm1 0c0-1 .7-1.8 1.7-1.8s1.7.8 1.7 1.8c0 1.1-.7 1.8-1.7 1.8s-1.7-.7-1.7-1.8zm5.2 2.5h3v-.8H76v-4.2h-.9v5zm7-4.6c-.4-.4-1-.5-1.5-.5-.9 0-1.8.5-1.8 1.5 0 .9.7 1.2 1.3 1.4.6.2 1.2.3 1.2.9 0 .5-.5.7-.9.7s-.8-.2-1.1-.6l-.6.6c.4.5 1.1.7 1.7.7 1 0 1.8-.5 1.8-1.6 0-1-.8-1.3-1.5-1.5-.6-.2-1-.3-1-.8s.5-.7.9-.7.7.2.9.4l.6-.5zm.3-14.3H22.6v.5h59.8v-.5zM65 112c-20.9.4-45-6.3-52.9-27.9-7.9-21.8 5.5-46.5 27.7-52.6-.1-.4-.2-.9-.3-1.3-28 4.6-44.3 35.9-32.1 61.5 12.7 26.7 43.7 30 68.4 19.3-3.6.4-7.2.7-10.8 1-6.4.1 4.4-.4 0 0z" class="st0"/></svg>